# xmcd CD database file
#
# Track frame offsets:
#	150
#	16064
#	25554
#	38259
#	48505
#	71037
#	88912
#	104946
#	119561
#	130912
#	146303
#	164505
#	179663
#	193514
#	217645
#	231104
#
# Disc length: 3200 seconds
#
# Revision: 1
# Processed by: cddbd v1.5.2PL0 Copyright (c) Steve Scherf et al.
# Submitted via: CDex 1.51
#
DISCID=db0c7e10
DTITLE=Various Artist - ¿Ô§hπqºv
DYEAR=2000
DGENRE=Jazz
TTITLE0=Mack The Knife
TTITLE1=What Ever WILL bE will Be
TTITLE2=Moon River
TTITLE3=The River Of No Return
TTITLE4=Perlude To A Kiss
TTITLE5=As Time Goes By
TTITLE6=But Not For Me
TTITLE7=Dream A little Dream
TTITLE8=My Funny Valentine
TTITLE9=I Can't Give You Anything But Love
TTITLE10=For All We Know
TTITLE11=Stranger On The Shore
TTITLE12=Over The Rainbow
TTITLE13=Autumn In New York
TTITLE14=Oh!Pretty
TTITLE15=The Way We Were
EXTD=YEAR: 2000
EXTT0=
EXTT1=
EXTT2=
EXTT3=
EXTT4=
EXTT5=
EXTT6=
EXTT7=
EXTT8=
EXTT9=
EXTT10=
EXTT11=
EXTT12=
EXTT13=
EXTT14=
EXTT15=
PLAYORDER=
